<svg width="24" height="24" viewBox="0 0 24 24" fill="none" xmlns="http://www.w3.org/2000/svg">
<path d="M12.0075 17.1435C11.8382 17.1445 11.6705 17.1121 11.5139 17.0481C11.3572 16.9841 11.2147 16.8898 11.0946 16.7707L5.95174 11.6278C5.7411 11.3819 5.63104 11.0655 5.64354 10.7419C5.65604 10.4183 5.79018 10.1114 6.01916 9.88238C6.24813 9.6534 6.55508 9.51926 6.87867 9.50676C7.20225 9.49426 7.51864 9.60432 7.76459 9.81496L12.0075 14.045L16.2375 9.81496C16.4834 9.60432 16.7998 9.49426 17.1234 9.50676C17.447 9.51926 17.7539 9.6534 17.9829 9.88238C18.2119 10.1114 18.346 10.4183 18.3585 10.7419C18.371 11.0655 18.2609 11.3819 18.0503 11.6278L12.9075 16.7707C12.668 17.0082 12.3447 17.1421 12.0075 17.1435Z" fill="white" stroke="white" stroke-width="0.6"/>
<path d="M11.9996 17.1429C11.6586 17.1429 11.3316 17.0074 11.0904 16.7663C10.8493 16.5252 10.7139 16.1981 10.7139 15.8572V3.00001C10.7139 2.65902 10.8493 2.33199 11.0904 2.09087C11.3316 1.84975 11.6586 1.71429 11.9996 1.71429C12.3406 1.71429 12.6676 1.84975 12.9087 2.09087C13.1498 2.33199 13.2853 2.65902 13.2853 3.00001V15.8572C13.2853 16.1981 13.1498 16.5252 12.9087 16.7663C12.6676 17.0074 12.3406 17.1429 11.9996 17.1429ZM20.9996 22.2857H2.99958C2.65859 22.2857 2.33156 22.1503 2.09044 21.9091C1.84933 21.668 1.71387 21.341 1.71387 21C1.71387 20.659 1.84933 20.332 2.09044 20.0909C2.33156 19.8498 2.65859 19.7143 2.99958 19.7143H20.9996C21.3406 19.7143 21.6676 19.8498 21.9087 20.0909C22.1498 20.332 22.2853 20.659 22.2853 21C22.2853 21.341 22.1498 21.668 21.9087 21.9091C21.6676 22.1503 21.3406 22.2857 20.9996 22.2857Z" fill="white" stroke="white" stroke-width="0.6"/>
</svg>
