<svg width="22" height="22" viewBox="0 0 22 22" fill="none" xmlns="http://www.w3.org/2000/svg">
<path d="M11.0079 16.1436C10.8387 16.1446 10.671 16.1121 10.5143 16.0482C10.3577 15.9842 10.2152 15.8899 10.0951 15.7707L4.95223 10.6279C4.74159 10.3819 4.63153 10.0655 4.64403 9.74195C4.65652 9.41837 4.79067 9.11142 5.01964 8.88244C5.24862 8.65346 5.55557 8.51932 5.87916 8.50682C6.20274 8.49432 6.51912 8.60439 6.76508 8.81502L11.0079 13.045L15.2379 8.81502C15.4839 8.60439 15.8003 8.49432 16.1239 8.50682C16.4474 8.51932 16.7544 8.65346 16.9834 8.88244C17.2124 9.11142 17.3465 9.41837 17.359 9.74195C17.3715 10.0655 17.2614 10.3819 17.0508 10.6279L11.9079 15.7707C11.6685 16.0083 11.3452 16.1422 11.0079 16.1436Z" fill="white" stroke="white" stroke-width="0.6"/>
<path d="M11.0001 16.1429C10.6591 16.1429 10.3321 16.0075 10.0909 15.7663C9.84981 15.5252 9.71436 15.1982 9.71436 14.8572V2.00007C9.71436 1.65908 9.84981 1.33205 10.0909 1.09093C10.3321 0.849815 10.6591 0.714355 11.0001 0.714355C11.3411 0.714355 11.6681 0.849815 11.9092 1.09093C12.1503 1.33205 12.2858 1.65908 12.2858 2.00007V14.8572C12.2858 15.1982 12.1503 15.5252 11.9092 15.7663C11.6681 16.0075 11.3411 16.1429 11.0001 16.1429ZM20.0001 21.2858H2.00007C1.65908 21.2858 1.33205 21.1503 1.09093 20.9092C0.849815 20.6681 0.714355 20.3411 0.714355 20.0001C0.714355 19.6591 0.849815 19.3321 1.09093 19.0909C1.33205 18.8498 1.65908 18.7144 2.00007 18.7144H20.0001C20.3411 18.7144 20.6681 18.8498 20.9092 19.0909C21.1503 19.3321 21.2858 19.6591 21.2858 20.0001C21.2858 20.3411 21.1503 20.6681 20.9092 20.9092C20.6681 21.1503 20.3411 21.2858 20.0001 21.2858Z" fill="white" stroke="white" stroke-width="0.6"/>
</svg>
