<svg width="157" height="44" viewBox="0 0 157 44" fill="none" xmlns="http://www.w3.org/2000/svg">
<rect x="0.25" y="0.25" width="156.5" height="43.5" rx="5.75" fill="white" stroke="#F0F0F0" stroke-width="0.5"/>
<path d="M24.5205 21.4048L10.0055 35.9198C9.31159 35.2635 8.93652 34.3633 8.93652 33.3881V10.6217C8.93652 9.62776 9.33034 8.72761 10.043 8.05249L24.5205 21.4048Z" fill="#2196F3"/>
<path d="M37.0664 22.005C37.0664 23.3178 36.3538 24.4805 35.1724 25.1368L31.0466 27.4247L25.927 22.6989L24.5205 21.4049L29.9402 15.9852L35.1724 18.8732C36.3538 19.5296 37.0664 20.6923 37.0664 22.005Z" fill="#FFC107"/>
<path d="M24.5205 21.405L10.043 8.05269C10.2305 7.86515 10.4743 7.69638 10.7181 7.54635C11.8995 6.83373 13.3248 6.81497 14.5438 7.49009L29.9402 15.9853L24.5205 21.405Z" fill="#4CAF50"/>
<path d="M31.046 27.4248L14.5432 36.5202C13.9618 36.8577 13.3055 37.0077 12.6678 37.0077C11.9927 37.0077 11.3176 36.839 10.7175 36.4639C10.4571 36.3147 10.2175 36.1319 10.0049 35.9201L24.5199 21.405L25.9264 22.699L31.046 27.4248Z" fill="#F44336"/>
<path d="M58.582 35H57.142L56.8 33.488C56.2 34.172 55.6 34.646 55 34.91C54.4 35.174 53.71 35.306 52.93 35.306C51.97 35.306 51.106 35.132 50.338 34.784C49.582 34.424 48.94 33.938 48.412 33.326C47.884 32.714 47.476 32 47.188 31.184C46.912 30.368 46.774 29.498 46.774 28.574C46.774 27.662 46.912 26.798 47.188 25.982C47.476 25.166 47.884 24.452 48.412 23.84C48.94 23.228 49.582 22.742 50.338 22.382C51.106 22.022 51.97 21.842 52.93 21.842C53.626 21.842 54.286 21.938 54.91 22.13C55.546 22.31 56.11 22.586 56.602 22.958C57.094 23.318 57.502 23.774 57.826 24.326C58.15 24.878 58.354 25.514 58.438 26.234H56.242C56.182 25.814 56.05 25.448 55.846 25.136C55.654 24.812 55.408 24.542 55.108 24.326C54.808 24.11 54.472 23.948 54.1 23.84C53.728 23.732 53.338 23.678 52.93 23.678C52.246 23.678 51.652 23.816 51.148 24.092C50.656 24.368 50.254 24.74 49.942 25.208C49.63 25.664 49.396 26.186 49.24 26.774C49.096 27.362 49.024 27.962 49.024 28.574C49.024 29.186 49.096 29.786 49.24 30.374C49.396 30.962 49.63 31.49 49.942 31.958C50.254 32.414 50.656 32.78 51.148 33.056C51.652 33.332 52.246 33.47 52.93 33.47C53.506 33.482 54.016 33.41 54.46 33.254C54.904 33.086 55.276 32.852 55.576 32.552C55.888 32.24 56.122 31.862 56.278 31.418C56.434 30.974 56.518 30.482 56.53 29.942H53.11V28.232H58.582V35ZM65.0042 35.252C64.2602 35.252 63.5942 35.132 63.0062 34.892C62.4302 34.64 61.9382 34.298 61.5302 33.866C61.1342 33.434 60.8282 32.918 60.6122 32.318C60.4082 31.718 60.3062 31.058 60.3062 30.338C60.3062 29.63 60.4082 28.976 60.6122 28.376C60.8282 27.776 61.1342 27.26 61.5302 26.828C61.9382 26.396 62.4302 26.06 63.0062 25.82C63.5942 25.568 64.2602 25.442 65.0042 25.442C65.7482 25.442 66.4082 25.568 66.9842 25.82C67.5722 26.06 68.0642 26.396 68.4602 26.828C68.8682 27.26 69.1742 27.776 69.3782 28.376C69.5942 28.976 69.7022 29.63 69.7022 30.338C69.7022 31.058 69.5942 31.718 69.3782 32.318C69.1742 32.918 68.8682 33.434 68.4602 33.866C68.0642 34.298 67.5722 34.64 66.9842 34.892C66.4082 35.132 65.7482 35.252 65.0042 35.252ZM65.0042 33.632C65.4602 33.632 65.8562 33.536 66.1922 33.344C66.5282 33.152 66.8042 32.9 67.0202 32.588C67.2362 32.276 67.3922 31.928 67.4882 31.544C67.5962 31.148 67.6502 30.746 67.6502 30.338C67.6502 29.942 67.5962 29.546 67.4882 29.15C67.3922 28.754 67.2362 28.406 67.0202 28.106C66.8042 27.794 66.5282 27.542 66.1922 27.35C65.8562 27.158 65.4602 27.062 65.0042 27.062C64.5482 27.062 64.1522 27.158 63.8162 27.35C63.4802 27.542 63.2042 27.794 62.9882 28.106C62.7722 28.406 62.6102 28.754 62.5022 29.15C62.4062 29.546 62.3582 29.942 62.3582 30.338C62.3582 30.746 62.4062 31.148 62.5022 31.544C62.6102 31.928 62.7722 32.276 62.9882 32.588C63.2042 32.9 63.4802 33.152 63.8162 33.344C64.1522 33.536 64.5482 33.632 65.0042 33.632ZM75.6741 35.252C74.9301 35.252 74.2641 35.132 73.6761 34.892C73.1001 34.64 72.6081 34.298 72.2001 33.866C71.8041 33.434 71.4981 32.918 71.2821 32.318C71.0781 31.718 70.9761 31.058 70.9761 30.338C70.9761 29.63 71.0781 28.976 71.2821 28.376C71.4981 27.776 71.8041 27.26 72.2001 26.828C72.6081 26.396 73.1001 26.06 73.6761 25.82C74.2641 25.568 74.9301 25.442 75.6741 25.442C76.4181 25.442 77.0781 25.568 77.6541 25.82C78.2421 26.06 78.7341 26.396 79.1301 26.828C79.5381 27.26 79.8441 27.776 80.0481 28.376C80.2641 28.976 80.3721 29.63 80.3721 30.338C80.3721 31.058 80.2641 31.718 80.0481 32.318C79.8441 32.918 79.5381 33.434 79.1301 33.866C78.7341 34.298 78.2421 34.64 77.6541 34.892C77.0781 35.132 76.4181 35.252 75.6741 35.252ZM75.6741 33.632C76.1301 33.632 76.5261 33.536 76.8621 33.344C77.1981 33.152 77.4741 32.9 77.6901 32.588C77.9061 32.276 78.0621 31.928 78.1581 31.544C78.2661 31.148 78.3201 30.746 78.3201 30.338C78.3201 29.942 78.2661 29.546 78.1581 29.15C78.0621 28.754 77.9061 28.406 77.6901 28.106C77.4741 27.794 77.1981 27.542 76.8621 27.35C76.5261 27.158 76.1301 27.062 75.6741 27.062C75.2181 27.062 74.8221 27.158 74.4861 27.35C74.1501 27.542 73.8741 27.794 73.6581 28.106C73.4421 28.406 73.2801 28.754 73.1721 29.15C73.0761 29.546 73.0281 29.942 73.0281 30.338C73.0281 30.746 73.0761 31.148 73.1721 31.544C73.2801 31.928 73.4421 32.276 73.6581 32.588C73.8741 32.9 74.1501 33.152 74.4861 33.344C74.8221 33.536 75.2181 33.632 75.6741 33.632ZM90.682 34.514C90.682 35.918 90.286 36.962 89.494 37.646C88.714 38.342 87.586 38.69 86.11 38.69C85.642 38.69 85.168 38.642 84.688 38.546C84.22 38.45 83.788 38.288 83.392 38.06C83.008 37.832 82.684 37.532 82.42 37.16C82.156 36.788 82 36.332 81.952 35.792H84.004C84.064 36.08 84.166 36.314 84.31 36.494C84.454 36.674 84.622 36.812 84.814 36.908C85.018 37.016 85.24 37.082 85.48 37.106C85.72 37.142 85.972 37.16 86.236 37.16C87.064 37.16 87.67 36.956 88.054 36.548C88.438 36.14 88.63 35.552 88.63 34.784V33.362H88.594C88.306 33.878 87.91 34.28 87.406 34.568C86.914 34.856 86.38 35 85.804 35C85.06 35 84.424 34.874 83.896 34.622C83.38 34.358 82.948 34.004 82.6 33.56C82.264 33.104 82.018 32.582 81.862 31.994C81.706 31.406 81.628 30.776 81.628 30.104C81.628 29.48 81.724 28.886 81.916 28.322C82.108 27.758 82.384 27.266 82.744 26.846C83.104 26.414 83.542 26.072 84.058 25.82C84.586 25.568 85.18 25.442 85.84 25.442C86.428 25.442 86.968 25.568 87.46 25.82C87.952 26.06 88.33 26.444 88.594 26.972H88.63V25.694H90.682V34.514ZM86.128 33.38C86.584 33.38 86.968 33.29 87.28 33.11C87.604 32.918 87.862 32.672 88.054 32.372C88.258 32.06 88.402 31.712 88.486 31.328C88.582 30.932 88.63 30.536 88.63 30.14C88.63 29.744 88.582 29.36 88.486 28.988C88.39 28.616 88.24 28.286 88.036 27.998C87.844 27.71 87.586 27.482 87.262 27.314C86.95 27.146 86.572 27.062 86.128 27.062C85.672 27.062 85.288 27.158 84.976 27.35C84.664 27.542 84.412 27.794 84.22 28.106C84.028 28.406 83.89 28.754 83.806 29.15C83.722 29.534 83.68 29.918 83.68 30.302C83.68 30.686 83.728 31.064 83.824 31.436C83.92 31.796 84.064 32.12 84.256 32.408C84.46 32.696 84.712 32.93 85.012 33.11C85.324 33.29 85.696 33.38 86.128 33.38ZM92.802 22.148H94.854V35H92.802V22.148ZM103.48 29.528C103.456 29.204 103.384 28.892 103.264 28.592C103.156 28.292 103 28.034 102.796 27.818C102.604 27.59 102.364 27.41 102.076 27.278C101.8 27.134 101.488 27.062 101.14 27.062C100.78 27.062 100.45 27.128 100.15 27.26C99.8618 27.38 99.6098 27.554 99.3938 27.782C99.1898 27.998 99.0218 28.256 98.8898 28.556C98.7698 28.856 98.7038 29.18 98.6918 29.528H103.48ZM98.6918 30.878C98.6918 31.238 98.7398 31.586 98.8358 31.922C98.9438 32.258 99.0998 32.552 99.3038 32.804C99.5078 33.056 99.7658 33.26 100.078 33.416C100.39 33.56 100.762 33.632 101.194 33.632C101.794 33.632 102.274 33.506 102.634 33.254C103.006 32.99 103.282 32.6 103.462 32.084H105.406C105.298 32.588 105.112 33.038 104.848 33.434C104.584 33.83 104.266 34.166 103.894 34.442C103.522 34.706 103.102 34.904 102.634 35.036C102.178 35.18 101.698 35.252 101.194 35.252C100.462 35.252 99.8138 35.132 99.2498 34.892C98.6858 34.652 98.2058 34.316 97.8098 33.884C97.4258 33.452 97.1318 32.936 96.9278 32.336C96.7358 31.736 96.6398 31.076 96.6398 30.356C96.6398 29.696 96.7418 29.072 96.9458 28.484C97.1618 27.884 97.4618 27.362 97.8458 26.918C98.2418 26.462 98.7158 26.102 99.2678 25.838C99.8198 25.574 100.444 25.442 101.14 25.442C101.872 25.442 102.526 25.598 103.102 25.91C103.69 26.21 104.176 26.612 104.56 27.116C104.944 27.62 105.22 28.202 105.388 28.862C105.568 29.51 105.616 30.182 105.532 30.878H98.6918ZM112.389 22.148H118.059C118.971 22.148 119.715 22.28 120.291 22.544C120.867 22.808 121.311 23.138 121.623 23.534C121.935 23.93 122.145 24.362 122.253 24.83C122.373 25.298 122.433 25.73 122.433 26.126C122.433 26.522 122.373 26.954 122.253 27.422C122.145 27.878 121.935 28.304 121.623 28.7C121.311 29.096 120.867 29.426 120.291 29.69C119.715 29.942 118.971 30.068 118.059 30.068H114.639V35H112.389V22.148ZM114.639 28.232H117.933C118.185 28.232 118.443 28.196 118.707 28.124C118.971 28.052 119.211 27.938 119.427 27.782C119.655 27.614 119.835 27.398 119.967 27.134C120.111 26.858 120.183 26.516 120.183 26.108C120.183 25.688 120.123 25.34 120.003 25.064C119.883 24.788 119.721 24.572 119.517 24.416C119.313 24.248 119.079 24.134 118.815 24.074C118.551 24.014 118.269 23.984 117.969 23.984H114.639V28.232ZM124.161 22.148H126.213V35H124.161V22.148ZM136.243 32.93C136.243 33.182 136.273 33.362 136.333 33.47C136.405 33.578 136.537 33.632 136.729 33.632C136.789 33.632 136.861 33.632 136.945 33.632C137.029 33.632 137.125 33.62 137.233 33.596V35.018C137.161 35.042 137.065 35.066 136.945 35.09C136.837 35.126 136.723 35.156 136.603 35.18C136.483 35.204 136.363 35.222 136.243 35.234C136.123 35.246 136.021 35.252 135.937 35.252C135.517 35.252 135.169 35.168 134.893 35C134.617 34.832 134.437 34.538 134.353 34.118C133.945 34.514 133.441 34.802 132.841 34.982C132.253 35.162 131.683 35.252 131.131 35.252C130.711 35.252 130.309 35.192 129.925 35.072C129.541 34.964 129.199 34.802 128.899 34.586C128.611 34.358 128.377 34.076 128.197 33.74C128.029 33.392 127.945 32.99 127.945 32.534C127.945 31.958 128.047 31.49 128.251 31.13C128.467 30.77 128.743 30.488 129.079 30.284C129.427 30.08 129.811 29.936 130.231 29.852C130.663 29.756 131.095 29.684 131.527 29.636C131.899 29.564 132.253 29.516 132.589 29.492C132.925 29.456 133.219 29.402 133.471 29.33C133.735 29.258 133.939 29.15 134.083 29.006C134.239 28.85 134.317 28.622 134.317 28.322C134.317 28.058 134.251 27.842 134.119 27.674C133.999 27.506 133.843 27.38 133.651 27.296C133.471 27.2 133.267 27.14 133.039 27.116C132.811 27.08 132.595 27.062 132.391 27.062C131.815 27.062 131.341 27.182 130.969 27.422C130.597 27.662 130.387 28.034 130.339 28.538H128.287C128.323 27.938 128.467 27.44 128.719 27.044C128.971 26.648 129.289 26.33 129.673 26.09C130.069 25.85 130.513 25.682 131.005 25.586C131.497 25.49 132.001 25.442 132.517 25.442C132.973 25.442 133.423 25.49 133.867 25.586C134.311 25.682 134.707 25.838 135.055 26.054C135.415 26.27 135.703 26.552 135.919 26.9C136.135 27.236 136.243 27.65 136.243 28.142V32.93ZM134.191 30.338C133.879 30.542 133.495 30.668 133.039 30.716C132.583 30.752 132.127 30.812 131.671 30.896C131.455 30.932 131.245 30.986 131.041 31.058C130.837 31.118 130.657 31.208 130.501 31.328C130.345 31.436 130.219 31.586 130.123 31.778C130.039 31.958 129.997 32.18 129.997 32.444C129.997 32.672 130.063 32.864 130.195 33.02C130.327 33.176 130.483 33.302 130.663 33.398C130.855 33.482 131.059 33.542 131.275 33.578C131.503 33.614 131.707 33.632 131.887 33.632C132.115 33.632 132.361 33.602 132.625 33.542C132.889 33.482 133.135 33.38 133.363 33.236C133.603 33.092 133.801 32.912 133.957 32.696C134.113 32.468 134.191 32.192 134.191 31.868V30.338ZM137.425 25.694H139.675L142.105 32.642H142.141L144.499 25.694H146.641L143.023 35.504C142.855 35.924 142.687 36.326 142.519 36.71C142.363 37.094 142.165 37.43 141.925 37.718C141.697 38.018 141.409 38.252 141.061 38.42C140.713 38.6 140.269 38.69 139.729 38.69C139.249 38.69 138.775 38.654 138.307 38.582V36.854C138.475 36.878 138.637 36.902 138.793 36.926C138.949 36.962 139.111 36.98 139.279 36.98C139.519 36.98 139.717 36.95 139.873 36.89C140.029 36.83 140.155 36.74 140.251 36.62C140.359 36.512 140.449 36.38 140.521 36.224C140.593 36.068 140.659 35.888 140.719 35.684L140.953 34.964L137.425 25.694Z" fill="black"/>
<path d="M52.12 14.11L52.37 15H52.97V11.24H49.84V12.04H52.12C52.1333 12.3667 52.09 12.6733 51.99 12.96C51.89 13.24 51.74 13.4867 51.54 13.7C51.3467 13.9067 51.1067 14.07 50.82 14.19C50.5333 14.31 50.2033 14.37 49.83 14.37C49.43 14.37 49.0767 14.2933 48.77 14.14C48.47 13.98 48.2167 13.77 48.01 13.51C47.8033 13.2433 47.6467 12.94 47.54 12.6C47.4333 12.2533 47.38 11.8933 47.38 11.52C47.38 11.14 47.4267 10.77 47.52 10.41C47.6133 10.0433 47.7567 9.72 47.95 9.44C48.15 9.15333 48.4033 8.92333 48.71 8.75C49.0233 8.57667 49.3967 8.49 49.83 8.49C50.0967 8.49 50.3467 8.52333 50.58 8.59C50.82 8.65 51.0333 8.74333 51.22 8.87C51.4067 8.99667 51.5633 9.16 51.69 9.36C51.8167 9.55333 51.9033 9.78667 51.95 10.06H52.9C52.8333 9.64 52.7067 9.28333 52.52 8.99C52.34 8.69 52.1133 8.44333 51.84 8.25C51.5733 8.05667 51.2667 7.91667 50.92 7.83C50.58 7.73667 50.2167 7.69 49.83 7.69C49.2633 7.69 48.7667 7.79667 48.34 8.01C47.92 8.21667 47.5667 8.49667 47.28 8.85C47 9.20333 46.7867 9.61667 46.64 10.09C46.5 10.5567 46.43 11.05 46.43 11.57C46.43 12.0367 46.5067 12.4867 46.66 12.92C46.8133 13.3533 47.0367 13.7367 47.33 14.07C47.6233 14.4033 47.98 14.67 48.4 14.87C48.82 15.0633 49.2967 15.16 49.83 15.16C50.25 15.16 50.6667 15.08 51.08 14.92C51.4933 14.7533 51.84 14.4833 52.12 14.11ZM54.3679 7.86V15H59.3279V14.2H55.3179V11.73H59.0279V10.93H55.3179V8.66H59.2979V7.86H54.3679ZM62.1012 8.66V15H63.0512V8.66H65.4312V7.86H59.7212V8.66H62.1012ZM69.0466 7.86V15H69.9966V7.86H69.0466ZM73.2145 8.66V15H74.1645V8.66H76.5445V7.86H70.8345V8.66H73.2145ZM80.6698 11.43C80.6698 11.07 80.7165 10.7167 80.8098 10.37C80.9032 10.0167 81.0498 9.7 81.2498 9.42C81.4498 9.14 81.7065 8.91667 82.0198 8.75C82.3332 8.57667 82.7065 8.49 83.1398 8.49C83.5732 8.49 83.9465 8.57667 84.2598 8.75C84.5732 8.91667 84.8298 9.14 85.0298 9.42C85.2298 9.7 85.3765 10.0167 85.4698 10.37C85.5632 10.7167 85.6098 11.07 85.6098 11.43C85.6098 11.79 85.5632 12.1467 85.4698 12.5C85.3765 12.8467 85.2298 13.16 85.0298 13.44C84.8298 13.72 84.5732 13.9467 84.2598 14.12C83.9465 14.2867 83.5732 14.37 83.1398 14.37C82.7065 14.37 82.3332 14.2867 82.0198 14.12C81.7065 13.9467 81.4498 13.72 81.2498 13.44C81.0498 13.16 80.9032 12.8467 80.8098 12.5C80.7165 12.1467 80.6698 11.79 80.6698 11.43ZM79.7198 11.43C79.7198 11.9167 79.7898 12.3867 79.9298 12.84C80.0765 13.2867 80.2932 13.6833 80.5798 14.03C80.8665 14.3767 81.2232 14.6533 81.6498 14.86C82.0765 15.06 82.5732 15.16 83.1398 15.16C83.7065 15.16 84.2032 15.06 84.6298 14.86C85.0565 14.6533 85.4132 14.3767 85.6998 14.03C85.9865 13.6833 86.1998 13.2867 86.3398 12.84C86.4865 12.3867 86.5598 11.9167 86.5598 11.43C86.5598 10.9433 86.4865 10.4767 86.3398 10.03C86.1998 9.57667 85.9865 9.17667 85.6998 8.83C85.4132 8.48333 85.0565 8.20667 84.6298 8C84.2032 7.79333 83.7065 7.69 83.1398 7.69C82.5732 7.69 82.0765 7.79333 81.6498 8C81.2232 8.20667 80.8665 8.48333 80.5798 8.83C80.2932 9.17667 80.0765 9.57667 79.9298 10.03C79.7898 10.4767 79.7198 10.9433 79.7198 11.43ZM87.7075 7.86V15H88.6075V9.27H88.6275L92.3575 15H93.3975V7.86H92.4975V13.65H92.4775L88.7175 7.86H87.7075Z" fill="black"/>
</svg>
