<svg width="115" height="18" viewBox="0 0 115 18" fill="none" xmlns="http://www.w3.org/2000/svg">
<path d="M8.62 17.22C7.19333 17.22 5.97333 16.9733 4.96 16.48C3.94667 15.9867 3.11333 15.3333 2.46 14.52C1.82 13.7067 1.34667 12.8 1.04 11.8C0.733333 10.7867 0.58 9.77333 0.58 8.76C0.58 7.74667 0.733333 6.74 1.04 5.74C1.34667 4.74 1.82 3.83333 2.46 3.02C3.11333 2.20667 3.94667 1.55333 4.96 1.06C5.97333 0.566666 7.19333 0.319999 8.62 0.319999C10.0467 0.319999 11.2667 0.566666 12.28 1.06C13.2933 1.55333 14.12 2.20667 14.76 3.02C15.4133 3.83333 15.8933 4.74 16.2 5.74C16.5067 6.74 16.66 7.74667 16.66 8.76C16.66 9.77333 16.5067 10.7867 16.2 11.8C15.9067 12.8 15.4333 13.7067 14.78 14.52C14.14 15.3333 13.3067 15.9867 12.28 16.48C11.2667 16.9733 10.0467 17.22 8.62 17.22ZM8.64 14.52C7.85333 14.52 7.21333 14.4067 6.72 14.18C6.22667 13.9533 5.84667 13.6333 5.58 13.22C5.32667 12.7933 5.14667 12.2867 5.04 11.7C4.94667 11.1 4.9 10.44 4.9 9.72V7.58C4.9 6.56667 4.99333 5.7 5.18 4.98C5.38 4.26 5.74667 3.71333 6.28 3.34C6.82667 2.95333 7.61333 2.76 8.64 2.76C9.57333 2.76 10.2933 2.9 10.8 3.18C11.3067 3.46 11.6533 3.88 11.84 4.44C12.04 5 12.14 5.7 12.14 6.54V7.08H10.04V6.54C10.04 6.00667 9.99333 5.58667 9.9 5.28C9.82 4.96 9.68 4.73333 9.48 4.6C9.29333 4.46667 9.02667 4.4 8.68 4.4C8.28 4.4 7.97333 4.48667 7.76 4.66C7.54667 4.82 7.4 5.1 7.32 5.5C7.24 5.9 7.2 6.44 7.2 7.12V10.28C7.2 10.9733 7.24667 11.5067 7.34 11.88C7.44667 12.2533 7.60667 12.5133 7.82 12.66C8.03333 12.7933 8.32 12.86 8.68 12.86C9.08 12.86 9.37333 12.7733 9.56 12.6C9.76 12.4267 9.88667 12.1867 9.94 11.88C10.0067 11.56 10.04 11.1933 10.04 10.78V10.14H12.14V10.64C12.14 11.4533 12.04 12.1533 11.84 12.74C11.64 13.3133 11.2867 13.7533 10.78 14.06C10.2733 14.3667 9.56 14.52 8.64 14.52ZM8.68 16.34C9.90667 16.34 10.96 16.1267 11.84 15.7C12.7333 15.2733 13.4667 14.7 14.04 13.98C14.6133 13.26 15.04 12.4467 15.32 11.54C15.6 10.6333 15.74 9.70667 15.74 8.76C15.74 7.8 15.6 6.87333 15.32 5.98C15.04 5.07333 14.6133 4.26 14.04 3.54C13.4667 2.82 12.7333 2.25333 11.84 1.84C10.96 1.41333 9.90667 1.2 8.68 1.2C7.45333 1.2 6.39333 1.41333 5.5 1.84C4.60667 2.25333 3.87333 2.82 3.3 3.54C2.72667 4.26 2.3 5.07333 2.02 5.98C1.75333 6.87333 1.62 7.8 1.62 8.76C1.62 9.70667 1.75333 10.6333 2.02 11.54C2.3 12.4467 2.72667 13.26 3.3 13.98C3.87333 14.7 4.60667 15.2733 5.5 15.7C6.39333 16.1267 7.45333 16.34 8.68 16.34ZM22.6364 17V15.48L26.7564 9.06C27.0631 8.58 27.3431 8.13333 27.5964 7.72C27.8631 7.30667 28.0764 6.87333 28.2364 6.42C28.4097 5.95333 28.4964 5.42 28.4964 4.82C28.4964 4.07333 28.3764 3.48667 28.1364 3.06C27.8964 2.63333 27.4764 2.42 26.8764 2.42C26.3697 2.42 25.9764 2.56 25.6964 2.84C25.4164 3.12 25.2231 3.48667 25.1164 3.94C25.0097 4.39333 24.9564 4.88 24.9564 5.4V5.94H22.8164V5.38C22.8164 4.40667 22.9431 3.57333 23.1964 2.88C23.4631 2.17333 23.8831 1.62667 24.4564 1.24C25.0431 0.853333 25.8164 0.659999 26.7764 0.659999C28.0831 0.659999 29.0564 1.03333 29.6964 1.78C30.3364 2.51333 30.6564 3.53333 30.6564 4.84C30.6564 5.53333 30.5697 6.14 30.3964 6.66C30.2364 7.18 30.0231 7.66667 29.7564 8.12C29.4897 8.57333 29.1964 9.04 28.8764 9.52L25.1564 15.2H30.2764V17H22.6364ZM36.5472 17.18C35.6272 17.18 34.8672 16.9733 34.2672 16.56C33.6805 16.1467 33.2405 15.58 32.9472 14.86C32.6672 14.14 32.5272 13.32 32.5272 12.4V5.42C32.5272 4.47333 32.6672 3.64667 32.9472 2.94C33.2272 2.22 33.6605 1.66 34.2472 1.26C34.8472 0.859999 35.6139 0.659999 36.5472 0.659999C37.4805 0.659999 38.2405 0.859999 38.8272 1.26C39.4139 1.66 39.8472 2.22 40.1272 2.94C40.4072 3.64667 40.5472 4.47333 40.5472 5.42V12.4C40.5472 13.3333 40.4005 14.16 40.1072 14.88C39.8272 15.6 39.3939 16.1667 38.8072 16.58C38.2205 16.98 37.4672 17.18 36.5472 17.18ZM36.5472 15.42C37.0539 15.42 37.4339 15.2733 37.6872 14.98C37.9539 14.6867 38.1339 14.3133 38.2272 13.86C38.3339 13.3933 38.3872 12.9133 38.3872 12.42V5.4C38.3872 4.88 38.3405 4.39333 38.2472 3.94C38.1539 3.47333 37.9739 3.1 37.7072 2.82C37.4539 2.54 37.0672 2.4 36.5472 2.4C36.0272 2.4 35.6339 2.54 35.3672 2.82C35.1005 3.1 34.9205 3.47333 34.8272 3.94C34.7339 4.39333 34.6872 4.88 34.6872 5.4V12.42C34.6872 12.9133 34.7339 13.3933 34.8272 13.86C34.9339 14.3133 35.1205 14.6867 35.3872 14.98C35.6672 15.2733 36.0539 15.42 36.5472 15.42ZM42.5192 17V15.48L46.6392 9.06C46.9459 8.58 47.2259 8.13333 47.4792 7.72C47.7459 7.30667 47.9592 6.87333 48.1192 6.42C48.2926 5.95333 48.3792 5.42 48.3792 4.82C48.3792 4.07333 48.2592 3.48667 48.0192 3.06C47.7792 2.63333 47.3592 2.42 46.7592 2.42C46.2526 2.42 45.8592 2.56 45.5792 2.84C45.2992 3.12 45.1059 3.48667 44.9992 3.94C44.8926 4.39333 44.8392 4.88 44.8392 5.4V5.94H42.6992V5.38C42.6992 4.40667 42.8259 3.57333 43.0792 2.88C43.3459 2.17333 43.7659 1.62667 44.3392 1.24C44.9259 0.853333 45.6992 0.659999 46.6592 0.659999C47.9659 0.659999 48.9392 1.03333 49.5792 1.78C50.2192 2.51333 50.5392 3.53333 50.5392 4.84C50.5392 5.53333 50.4526 6.14 50.2792 6.66C50.1192 7.18 49.9059 7.66667 49.6392 8.12C49.3726 8.57333 49.0792 9.04 48.7592 9.52L45.0392 15.2H50.1592V17H42.5192ZM56.01 17.18C55.13 17.18 54.3967 17.0133 53.81 16.68C53.2233 16.3467 52.7833 15.8667 52.49 15.24C52.1967 14.6133 52.05 13.8733 52.05 13.02V12.48H54.17C54.17 12.5333 54.17 12.5933 54.17 12.66C54.17 12.7133 54.17 12.7733 54.17 12.84C54.1833 13.32 54.2367 13.7533 54.33 14.14C54.4367 14.5267 54.6167 14.8333 54.87 15.06C55.1367 15.2867 55.5167 15.4 56.01 15.4C56.53 15.4 56.9233 15.28 57.19 15.04C57.4567 14.7867 57.6367 14.4333 57.73 13.98C57.8233 13.5267 57.87 13.0067 57.87 12.42C57.87 11.5667 57.71 10.8733 57.39 10.34C57.0833 9.79333 56.5367 9.49333 55.75 9.44C55.71 9.42667 55.6567 9.42 55.59 9.42C55.5367 9.42 55.49 9.42 55.45 9.42V7.28C55.49 7.28 55.5367 7.28 55.59 7.28C55.6433 7.28 55.69 7.28 55.73 7.28C56.49 7.25333 57.0367 7.05333 57.37 6.68C57.7033 6.30667 57.87 5.68667 57.87 4.82C57.87 4.08667 57.7433 3.5 57.49 3.06C57.25 2.62 56.7633 2.4 56.03 2.4C55.2967 2.4 54.81 2.64667 54.57 3.14C54.33 3.62 54.1967 4.24 54.17 5C54.17 5.05333 54.17 5.11333 54.17 5.18C54.17 5.23333 54.17 5.28667 54.17 5.34H52.05V4.8C52.05 3.93333 52.1967 3.19333 52.49 2.58C52.7833 1.96667 53.2233 1.49333 53.81 1.16C54.41 0.826666 55.15 0.659999 56.03 0.659999C56.9233 0.659999 57.6633 0.826666 58.25 1.16C58.8367 1.49333 59.2767 1.97333 59.57 2.6C59.8633 3.21333 60.01 3.95333 60.01 4.82C60.01 5.79333 59.7967 6.57333 59.37 7.16C58.9567 7.74667 58.3967 8.14667 57.69 8.36C58.1833 8.50667 58.5967 8.76 58.93 9.12C59.2767 9.48 59.5433 9.94 59.73 10.5C59.9167 11.0467 60.01 11.6867 60.01 12.42C60.01 13.38 59.8767 14.22 59.61 14.94C59.3433 15.6467 58.9167 16.2 58.33 16.6C57.7433 16.9867 56.97 17.18 56.01 17.18ZM68.3916 17V2.48H65.6516V0.799999H73.3116V2.48H70.6516V17H68.3916ZM77.6389 17.16C76.7856 17.16 76.1122 16.9867 75.6189 16.64C75.1256 16.2933 74.7722 15.8 74.5589 15.16C74.3589 14.52 74.2589 13.7667 74.2589 12.9V9.54C74.2589 8.67333 74.3589 7.92 74.5589 7.28C74.7722 6.64 75.1256 6.14667 75.6189 5.8C76.1122 5.45333 76.7856 5.28 77.6389 5.28C78.4922 5.28 79.1589 5.45333 79.6389 5.8C80.1322 6.14667 80.4789 6.64 80.6789 7.28C80.8922 7.92 80.9989 8.67333 80.9989 9.54V12.9C80.9989 13.7667 80.8922 14.52 80.6789 15.16C80.4789 15.8 80.1322 16.2933 79.6389 16.64C79.1589 16.9867 78.4922 17.16 77.6389 17.16ZM77.6389 15.58C78.0522 15.58 78.3389 15.46 78.4989 15.22C78.6722 14.98 78.7722 14.6667 78.7989 14.28C78.8389 13.88 78.8589 13.4667 78.8589 13.04V9.42C78.8589 8.98 78.8389 8.56667 78.7989 8.18C78.7722 7.79333 78.6722 7.48 78.4989 7.24C78.3389 6.98667 78.0522 6.86 77.6389 6.86C77.2256 6.86 76.9322 6.98667 76.7589 7.24C76.5856 7.48 76.4789 7.79333 76.4389 8.18C76.4122 8.56667 76.3989 8.98 76.3989 9.42V13.04C76.3989 13.4667 76.4122 13.88 76.4389 14.28C76.4789 14.6667 76.5856 14.98 76.7589 15.22C76.9322 15.46 77.2256 15.58 77.6389 15.58ZM82.995 16.98V0.779999H85.135V10.44L88.255 5.44H90.495L87.775 9.96L90.415 17H88.275L86.115 11.08L85.135 12.56V16.98H82.995ZM95.5292 17.18C94.5959 17.18 93.8159 16.98 93.1892 16.58C92.5759 16.18 92.1092 15.6267 91.7892 14.92C91.4692 14.2133 91.2826 13.3933 91.2292 12.46L93.2292 11.92C93.2692 12.4933 93.3559 13.0467 93.4892 13.58C93.6359 14.1133 93.8692 14.5533 94.1892 14.9C94.5092 15.2333 94.9559 15.4 95.5292 15.4C96.1159 15.4 96.5559 15.24 96.8492 14.92C97.1559 14.5867 97.3092 14.1133 97.3092 13.5C97.3092 12.7667 97.1426 12.18 96.8092 11.74C96.4759 11.2867 96.0559 10.8333 95.5492 10.38L92.8292 7.98C92.2959 7.51333 91.9026 7.00667 91.6492 6.46C91.3959 5.9 91.2692 5.21333 91.2692 4.4C91.2692 3.21333 91.6092 2.29333 92.2892 1.64C92.9692 0.986666 93.8959 0.659999 95.0692 0.659999C95.7092 0.659999 96.2692 0.746666 96.7492 0.92C97.2426 1.08 97.6492 1.33333 97.9692 1.68C98.3026 2.02667 98.5626 2.46667 98.7492 3C98.9492 3.52 99.0826 4.13333 99.1492 4.84L97.2292 5.36C97.1892 4.82667 97.1092 4.34 96.9892 3.9C96.8692 3.44667 96.6559 3.08667 96.3492 2.82C96.0559 2.54 95.6292 2.4 95.0692 2.4C94.5092 2.4 94.0692 2.55333 93.7492 2.86C93.4426 3.15333 93.2892 3.59333 93.2892 4.18C93.2892 4.67333 93.3692 5.08 93.5292 5.4C93.7026 5.72 93.9759 6.04667 94.3492 6.38L97.0892 8.78C97.7026 9.31333 98.2426 9.95333 98.7092 10.7C99.1759 11.4333 99.4092 12.3067 99.4092 13.32C99.4092 14.12 99.2426 14.8133 98.9092 15.4C98.5759 15.9733 98.1159 16.4133 97.5292 16.72C96.9559 17.0267 96.2892 17.18 95.5292 17.18ZM104.162 17.16C103.309 17.16 102.636 16.9867 102.142 16.64C101.649 16.2933 101.296 15.8 101.082 15.16C100.882 14.52 100.782 13.7667 100.782 12.9V9.54C100.782 8.67333 100.882 7.92 101.082 7.28C101.296 6.64 101.649 6.14667 102.142 5.8C102.636 5.45333 103.309 5.28 104.162 5.28C105.016 5.28 105.682 5.45333 106.162 5.8C106.656 6.14667 107.002 6.64 107.202 7.28C107.416 7.92 107.522 8.67333 107.522 9.54V12.9C107.522 13.7667 107.416 14.52 107.202 15.16C107.002 15.8 106.656 16.2933 106.162 16.64C105.682 16.9867 105.016 17.16 104.162 17.16ZM104.162 15.58C104.576 15.58 104.862 15.46 105.022 15.22C105.196 14.98 105.296 14.6667 105.322 14.28C105.362 13.88 105.382 13.4667 105.382 13.04V9.42C105.382 8.98 105.362 8.56667 105.322 8.18C105.296 7.79333 105.196 7.48 105.022 7.24C104.862 6.98667 104.576 6.86 104.162 6.86C103.749 6.86 103.456 6.98667 103.282 7.24C103.109 7.48 103.002 7.79333 102.962 8.18C102.936 8.56667 102.922 8.98 102.922 9.42V13.04C102.922 13.4667 102.936 13.88 102.962 14.28C103.002 14.6667 103.109 14.98 103.282 15.22C103.456 15.46 103.749 15.58 104.162 15.58ZM112.558 17.16C111.958 17.16 111.472 17.0467 111.098 16.82C110.738 16.5933 110.472 16.2733 110.298 15.86C110.138 15.4467 110.058 14.96 110.058 14.4V6.86H108.838V5.44H110.058V2.06H112.198V5.44H114.058V6.86H112.198V14.26C112.198 14.7133 112.272 15.04 112.418 15.24C112.565 15.4267 112.845 15.52 113.258 15.52C113.365 15.52 113.485 15.5133 113.618 15.5C113.765 15.4867 113.905 15.4733 114.038 15.46V17.04C113.772 17.08 113.525 17.1067 113.298 17.12C113.072 17.1467 112.825 17.16 112.558 17.16Z" fill="black"/>
</svg>
