<svg width="40" height="40" viewBox="0 0 40 40" fill="none" xmlns="http://www.w3.org/2000/svg">
<path fill-rule="evenodd" clip-rule="evenodd" d="M40 20C40 31.0457 31.0457 40 20 40C8.9543 40 0 31.0457 0 20C0 8.9543 8.9543 0 20 0C31.0457 0 40 8.9543 40 20ZM20.0079 25.1435C19.8387 25.1445 19.6709 25.1121 19.5143 25.0481C19.3577 24.9841 19.2152 24.8898 19.095 24.7707L13.9522 19.6278C13.7415 19.3818 13.6315 19.0655 13.644 18.7419C13.6565 18.4183 13.7906 18.1113 14.0196 17.8824C14.2486 17.6534 14.5555 17.5192 14.8791 17.5067C15.2027 17.4942 15.5191 17.6043 15.765 17.8149L18.7143 20.7552V11C18.7143 10.659 18.8497 10.332 19.0909 10.0909C19.332 9.84974 19.659 9.71429 20 9.71429C20.341 9.71429 20.668 9.84974 20.9091 10.0909C21.1503 10.332 21.2857 10.659 21.2857 11V20.7671L24.2379 17.8149C24.4839 17.6043 24.8002 17.4942 25.1238 17.5067C25.4474 17.5192 25.7544 17.6534 25.9833 17.8824C26.2123 18.1113 26.3465 18.4183 26.359 18.7419C26.3715 19.0655 26.2614 19.3818 26.0508 19.6278L20.9079 24.7707C20.6684 25.0082 20.3452 25.1421 20.0079 25.1435ZM10.0909 29.9091C10.332 30.1503 10.659 30.2857 11 30.2857H29C29.341 30.2857 29.668 30.1503 29.9091 29.9091C30.1503 29.668 30.2857 29.341 30.2857 29C30.2857 28.659 30.1503 28.332 29.9091 28.0909C29.668 27.8497 29.341 27.7143 29 27.7143H11C10.659 27.7143 10.332 27.8497 10.0909 28.0909C9.84974 28.332 9.71429 28.659 9.71429 29C9.71429 29.341 9.84974 29.668 10.0909 29.9091Z" fill="black"/>
</svg>
