<svg width="93" height="25" viewBox="0 0 93 25" fill="none" xmlns="http://www.w3.org/2000/svg">
<path d="M0.464 20V0.559999H4.016V17.552H8.72V20H0.464ZM14.5496 20.216C13.5416 20.216 12.7096 20.032 12.0536 19.664C11.3976 19.28 10.9016 18.728 10.5656 18.008C10.2456 17.288 10.0856 16.416 10.0856 15.392V10.736C10.0856 9.712 10.2456 8.84 10.5656 8.12C10.9016 7.4 11.3976 6.856 12.0536 6.488C12.7096 6.104 13.5416 5.912 14.5496 5.912C15.5576 5.912 16.3896 6.104 17.0456 6.488C17.7176 6.856 18.2136 7.4 18.5336 8.12C18.8696 8.84 19.0376 9.712 19.0376 10.736V15.392C19.0376 16.416 18.8696 17.288 18.5336 18.008C18.2136 18.728 17.7176 19.28 17.0456 19.664C16.3896 20.032 15.5576 20.216 14.5496 20.216ZM14.5736 17.96C14.9416 17.96 15.2136 17.856 15.3896 17.648C15.5656 17.44 15.6776 17.16 15.7256 16.808C15.7736 16.44 15.7976 16.04 15.7976 15.608V10.52C15.7976 10.088 15.7736 9.696 15.7256 9.344C15.6776 8.992 15.5656 8.712 15.3896 8.504C15.2136 8.28 14.9416 8.168 14.5736 8.168C14.2056 8.168 13.9336 8.28 13.7576 8.504C13.5816 8.712 13.4616 8.992 13.3976 9.344C13.3496 9.696 13.3256 10.088 13.3256 10.52V15.608C13.3256 16.04 13.3496 16.44 13.3976 16.808C13.4616 17.16 13.5816 17.44 13.7576 17.648C13.9336 17.856 14.2056 17.96 14.5736 17.96ZM25.3514 24.56C24.4074 24.56 23.5754 24.464 22.8554 24.272C22.1354 24.08 21.5754 23.784 21.1754 23.384C20.7754 22.984 20.5754 22.464 20.5754 21.824C20.5754 21.392 20.6634 21 20.8394 20.648C21.0314 20.312 21.2874 20.016 21.6074 19.76C21.9274 19.504 22.2714 19.288 22.6394 19.112C22.1114 18.968 21.7034 18.736 21.4154 18.416C21.1434 18.096 21.0074 17.712 21.0074 17.264C21.0074 16.72 21.1434 16.256 21.4154 15.872C21.6874 15.488 22.0634 15.08 22.5434 14.648C22.0474 14.248 21.6714 13.752 21.4154 13.16C21.1754 12.552 21.0554 11.76 21.0554 10.784C21.0554 9.728 21.2234 8.84 21.5594 8.12C21.9114 7.384 22.4154 6.832 23.0714 6.464C23.7434 6.096 24.5594 5.912 25.5194 5.912C26.2554 5.912 26.8714 6.024 27.3674 6.248C27.8634 6.456 28.2714 6.776 28.5914 7.208C28.7194 7.016 28.9434 6.776 29.2634 6.488C29.5834 6.2 29.9514 5.96 30.3674 5.768L30.7994 5.576L31.5914 7.328C31.4154 7.376 31.1754 7.456 30.8714 7.568C30.5834 7.68 30.2954 7.8 30.0074 7.928C29.7194 8.056 29.4954 8.168 29.3354 8.264C29.4794 8.584 29.5994 8.984 29.6954 9.464C29.7914 9.944 29.8394 10.4 29.8394 10.832C29.8394 11.808 29.6874 12.656 29.3834 13.376C29.0794 14.096 28.6074 14.656 27.9674 15.056C27.3434 15.44 26.5274 15.632 25.5194 15.632C25.1834 15.632 24.8554 15.608 24.5354 15.56C24.2154 15.496 23.9194 15.424 23.6474 15.344C23.5514 15.488 23.4554 15.64 23.3594 15.8C23.2794 15.96 23.2394 16.128 23.2394 16.304C23.2394 16.48 23.3354 16.624 23.5274 16.736C23.7194 16.848 24.0394 16.928 24.4874 16.976L27.4154 17.264C28.5514 17.376 29.3914 17.736 29.9354 18.344C30.4794 18.936 30.7514 19.744 30.7514 20.768C30.7514 21.6 30.5594 22.296 30.1754 22.856C29.8074 23.416 29.2234 23.84 28.4234 24.128C27.6394 24.416 26.6154 24.56 25.3514 24.56ZM25.7114 22.112C26.6074 22.112 27.2794 22.024 27.7274 21.848C28.1754 21.672 28.3994 21.352 28.3994 20.888C28.3994 20.632 28.3434 20.424 28.2314 20.264C28.1194 20.104 27.9194 19.976 27.6314 19.88C27.3434 19.768 26.9354 19.688 26.4074 19.64L24.0314 19.424C23.8554 19.568 23.6954 19.72 23.5514 19.88C23.4234 20.024 23.3194 20.184 23.2394 20.36C23.1594 20.536 23.1194 20.72 23.1194 20.912C23.1194 21.312 23.3114 21.608 23.6954 21.8C24.0794 22.008 24.7514 22.112 25.7114 22.112ZM25.5194 13.544C25.8074 13.544 26.0394 13.496 26.2154 13.4C26.3914 13.288 26.5274 13.12 26.6234 12.896C26.7194 12.656 26.7834 12.36 26.8154 12.008C26.8474 11.656 26.8634 11.248 26.8634 10.784C26.8634 10.32 26.8474 9.912 26.8154 9.56C26.7834 9.208 26.7194 8.912 26.6234 8.672C26.5434 8.432 26.4154 8.256 26.2394 8.144C26.0634 8.032 25.8234 7.976 25.5194 7.976C25.2314 7.976 24.9914 8.032 24.7994 8.144C24.6234 8.256 24.4874 8.432 24.3914 8.672C24.3114 8.896 24.2474 9.184 24.1994 9.536C24.1674 9.888 24.1514 10.304 24.1514 10.784C24.1514 11.232 24.1674 11.632 24.1994 11.984C24.2314 12.32 24.2954 12.608 24.3914 12.848C24.4874 13.072 24.6234 13.248 24.7994 13.376C24.9914 13.488 25.2314 13.544 25.5194 13.544ZM36.6746 20.216C35.6666 20.216 34.8346 20.032 34.1786 19.664C33.5226 19.28 33.0266 18.728 32.6906 18.008C32.3706 17.288 32.2106 16.416 32.2106 15.392V10.736C32.2106 9.712 32.3706 8.84 32.6906 8.12C33.0266 7.4 33.5226 6.856 34.1786 6.488C34.8346 6.104 35.6666 5.912 36.6746 5.912C37.6826 5.912 38.5146 6.104 39.1706 6.488C39.8426 6.856 40.3386 7.4 40.6586 8.12C40.9946 8.84 41.1626 9.712 41.1626 10.736V15.392C41.1626 16.416 40.9946 17.288 40.6586 18.008C40.3386 18.728 39.8426 19.28 39.1706 19.664C38.5146 20.032 37.6826 20.216 36.6746 20.216ZM36.6986 17.96C37.0666 17.96 37.3386 17.856 37.5146 17.648C37.6906 17.44 37.8026 17.16 37.8506 16.808C37.8986 16.44 37.9226 16.04 37.9226 15.608V10.52C37.9226 10.088 37.8986 9.696 37.8506 9.344C37.8026 8.992 37.6906 8.712 37.5146 8.504C37.3386 8.28 37.0666 8.168 36.6986 8.168C36.3306 8.168 36.0586 8.28 35.8826 8.504C35.7066 8.712 35.5866 8.992 35.5226 9.344C35.4746 9.696 35.4506 10.088 35.4506 10.52V15.608C35.4506 16.04 35.4746 16.44 35.5226 16.808C35.5866 17.16 35.7066 17.44 35.8826 17.648C36.0586 17.856 36.3306 17.96 36.6986 17.96ZM49.2324 24.56V6.128H52.4964V7.184C52.8964 6.8 53.3364 6.496 53.8164 6.272C54.2964 6.032 54.8004 5.912 55.3284 5.912C55.9524 5.912 56.4644 6.056 56.8644 6.344C57.2644 6.632 57.5764 7.016 57.8004 7.496C58.0244 7.96 58.1764 8.464 58.2564 9.008C58.3524 9.536 58.4004 10.048 58.4004 10.544V15.248C58.4004 16.16 58.2884 16.992 58.0644 17.744C57.8564 18.496 57.5124 19.096 57.0324 19.544C56.5684 19.992 55.9444 20.216 55.1604 20.216C54.6644 20.216 54.1924 20.096 53.7444 19.856C53.3124 19.616 52.8964 19.312 52.4964 18.944V24.56H49.2324ZM53.9364 17.936C54.2884 17.936 54.5444 17.824 54.7044 17.6C54.8804 17.36 54.9924 17.048 55.0404 16.664C55.1044 16.264 55.1364 15.832 55.1364 15.368V10.4C55.1364 9.968 55.1044 9.584 55.0404 9.248C54.9764 8.896 54.8564 8.616 54.6804 8.408C54.5044 8.2 54.2484 8.096 53.9124 8.096C53.6564 8.096 53.4004 8.16 53.1444 8.288C52.9044 8.4 52.6884 8.536 52.4964 8.696V17.456C52.7044 17.6 52.9284 17.72 53.1684 17.816C53.4084 17.896 53.6644 17.936 53.9364 17.936ZM63.3344 20.216C62.7104 20.216 62.1744 20.056 61.7264 19.736C61.2784 19.4 60.9344 18.984 60.6944 18.488C60.4544 17.976 60.3344 17.448 60.3344 16.904C60.3344 16.04 60.4944 15.312 60.8144 14.72C61.1344 14.128 61.5584 13.632 62.0864 13.232C62.6144 12.832 63.2144 12.488 63.8864 12.2C64.5584 11.896 65.2384 11.624 65.9264 11.384V10.184C65.9264 9.784 65.8944 9.448 65.8304 9.176C65.7824 8.904 65.6784 8.696 65.5184 8.552C65.3744 8.408 65.1424 8.336 64.8224 8.336C64.5504 8.336 64.3264 8.4 64.1504 8.528C63.9904 8.656 63.8704 8.84 63.7904 9.08C63.7264 9.304 63.6864 9.568 63.6704 9.872L63.6224 10.712L60.5264 10.592C60.5744 8.992 60.9664 7.816 61.7024 7.064C62.4544 6.296 63.5904 5.912 65.1104 5.912C66.5024 5.912 67.5104 6.296 68.1344 7.064C68.7744 7.832 69.0944 8.872 69.0944 10.184V16.592C69.0944 17.104 69.1024 17.568 69.1184 17.984C69.1504 18.4 69.1824 18.776 69.2144 19.112C69.2624 19.448 69.3024 19.744 69.3344 20H66.4064C66.3584 19.68 66.2944 19.32 66.2144 18.92C66.1504 18.504 66.1024 18.2 66.0704 18.008C65.9104 18.568 65.6064 19.08 65.1584 19.544C64.7104 19.992 64.1024 20.216 63.3344 20.216ZM64.5344 17.792C64.7424 17.792 64.9344 17.744 65.1104 17.648C65.3024 17.536 65.4704 17.408 65.6144 17.264C65.7584 17.12 65.8624 16.992 65.9264 16.88V13.016C65.5744 13.224 65.2384 13.432 64.9184 13.64C64.6144 13.848 64.3424 14.08 64.1024 14.336C63.8784 14.576 63.7024 14.84 63.5744 15.128C63.4624 15.416 63.4064 15.752 63.4064 16.136C63.4064 16.648 63.5024 17.056 63.6944 17.36C63.9024 17.648 64.1824 17.792 64.5344 17.792ZM75.674 20.216C74.602 20.216 73.738 20.016 73.082 19.616C72.442 19.2 71.97 18.616 71.666 17.864C71.378 17.096 71.234 16.192 71.234 15.152V10.976C71.234 9.904 71.378 8.992 71.666 8.24C71.97 7.488 72.45 6.912 73.106 6.512C73.762 6.112 74.618 5.912 75.674 5.912C76.666 5.912 77.474 6.072 78.098 6.392C78.738 6.696 79.202 7.168 79.49 7.808C79.778 8.432 79.922 9.224 79.922 10.184V11.336H76.85V10.112C76.85 9.632 76.81 9.256 76.73 8.984C76.666 8.696 76.546 8.496 76.37 8.384C76.194 8.256 75.962 8.192 75.674 8.192C75.386 8.192 75.154 8.272 74.978 8.432C74.802 8.576 74.674 8.816 74.594 9.152C74.53 9.488 74.498 9.952 74.498 10.544V15.632C74.498 16.528 74.594 17.136 74.786 17.456C74.978 17.76 75.282 17.912 75.698 17.912C76.018 17.912 76.258 17.84 76.418 17.696C76.594 17.552 76.706 17.344 76.754 17.072C76.818 16.784 76.85 16.44 76.85 16.04V14.552H79.922V15.872C79.922 16.8 79.77 17.592 79.466 18.248C79.178 18.904 78.714 19.4 78.074 19.736C77.45 20.056 76.65 20.216 75.674 20.216ZM82.0923 20V0.559999H85.3563V11.72L88.9323 6.128H92.4843L89.0043 11.696L92.4123 20H88.9803L86.4603 13.16L85.3563 14.696V20H82.0923Z" fill="black"/>
</svg>
