<?xml version="1.0" standalone="no"?>
<!DOCTYPE svg PUBLIC "-//W3C//DTD SVG 20010904//EN"
 "http://www.w3.org/TR/2001/REC-SVG-20010904/DTD/svg10.dtd">
<svg version="1.0" xmlns="http://www.w3.org/2000/svg" fill="white"
 width="1280.000000pt" height="288.000000pt" viewBox="0 0 1280.000000 288.000000"
 preserveAspectRatio="xMidYMid meet">

<g transform="translate(0.000000,288.000000) scale(0.100000,-0.100000)"
fill="#000000" stroke="none">
<path d="M0 1440 l0 -1440 6400 0 6400 0 0 1440 0 1440 -6400 0 -6400 0 0
-1440z m848 558 l-3 -83 -93 0 -92 0 0 -528 0 -528 -112 3 -113 3 -3 523 -2
522 -95 0 -95 0 0 85 0 85 305 0 306 0 -3 -82z m382 -129 l0 -210 28 19 c72
51 133 69 219 63 34 -2 88 -55 101 -99 8 -27 12 -156 12 -411 l0 -372 -102 3
-103 3 -5 350 c-3 193 -9 356 -13 363 -12 18 -68 14 -104 -8 l-33 -20 0 -345
0 -346 -102 3 -103 3 -3 608 -2 607 105 0 105 0 0 -211z m5820 -399 l0 -611
-102 3 c-98 3 -103 4 -106 26 -4 23 -16 29 -27 12 -4 -6 -24 -19 -45 -30 -77
-39 -193 -16 -239 48 -45 63 -53 107 -58 308 -9 317 18 430 116 496 47 32 202
17 226 -22 20 -32 25 6 25 185 l0 195 105 0 105 0 0 -610z m2910 399 l0 -211
23 16 c59 44 122 66 189 66 61 0 69 -3 96 -30 55 -55 57 -71 57 -475 l0 -370
-105 0 -105 0 -3 349 c-1 237 -6 354 -13 363 -17 19 -67 16 -105 -8 l-34 -21
0 -344 0 -345 -102 3 -103 3 -3 608 -2 607 105 0 105 0 0 -211z m800 86 l0
-85 -105 0 -105 0 0 78 c0 43 3 82 7 85 3 4 51 7 105 7 l98 0 0 -85z m-1338
-92 l3 -128 65 -5 65 -5 3 -59 c4 -71 -3 -77 -78 -74 l-55 2 0 -272 c0 -208 3
-274 13 -284 7 -7 39 -15 70 -18 l57 -5 3 -65 c1 -36 -2 -71 -7 -79 -7 -11
-36 -16 -100 -19 -83 -4 -96 -2 -145 22 -45 22 -59 36 -78 74 -22 46 -23 56
-26 348 -3 293 -4 302 -22 297 -11 -3 -31 -2 -45 1 -23 6 -25 10 -25 71 l0 65
45 0 45 0 0 130 0 130 105 0 104 0 3 -127z m2987 -154 c13 -28 21 -52 19 -53
-2 -1 -30 -13 -63 -27 -56 -24 -60 -27 -57 -55 2 -16 4 -79 5 -140 2 -105 0
-113 -28 -169 -23 -46 -42 -66 -79 -90 -47 -29 -55 -30 -165 -31 l-116 -1 -9
-27 c-17 -45 4 -54 164 -71 160 -18 211 -35 252 -84 65 -77 64 -219 -2 -295
-50 -57 -117 -79 -254 -84 -228 -9 -336 45 -336 168 0 62 42 124 105 158 19
10 19 11 -5 20 -32 13 -66 50 -73 82 -10 41 12 105 49 141 19 18 34 37 34 41
0 5 -13 26 -29 48 -40 55 -55 125 -48 229 6 108 27 161 85 211 56 50 103 63
213 58 79 -3 92 -6 133 -35 40 -28 46 -30 58 -16 22 28 90 73 108 73 12 0 25
-18 39 -51z m-10166 -5 c75 -53 107 -150 107 -320 l0 -94 -159 0 c-88 0 -166
-3 -175 -6 -13 -5 -16 -23 -16 -93 1 -146 20 -191 82 -191 47 0 68 34 68 112
l0 68 101 0 102 0 -6 -72 c-8 -99 -25 -146 -68 -189 -52 -52 -121 -73 -223
-67 -93 5 -146 27 -193 82 -54 61 -58 86 -58 366 l0 255 30 60 c51 102 144
140 304 124 46 -5 74 -14 104 -35z m1163 13 c45 -23 75 -56 96 -104 21 -48 41
-195 36 -274 l-3 -50 -170 -2 -170 -2 0 -123 c0 -118 1 -125 24 -143 13 -10
36 -19 51 -19 43 0 62 30 68 110 l5 70 93 0 94 0 0 -70 c0 -171 -93 -260 -270
-260 -129 0 -217 55 -255 160 -18 49 -20 80 -20 285 0 194 3 238 18 280 22 64
65 117 114 140 72 35 225 35 289 2z m1420 4 c94 -43 134 -138 134 -319 l0
-112 -167 -2 -168 -3 -3 -105 c-2 -58 0 -115 3 -127 8 -34 33 -53 70 -53 46 0
66 32 73 115 l5 65 95 0 95 0 -5 -82 c-6 -116 -40 -177 -123 -221 -33 -18 -57
-22 -140 -22 -88 0 -107 3 -150 26 -62 31 -100 84 -120 167 -13 50 -16 107
-13 280 3 204 4 220 27 270 26 58 87 117 136 131 57 17 206 12 251 -8z m782
-87 l3 -102 -65 5 c-54 5 -70 2 -98 -15 -19 -12 -40 -32 -46 -44 -8 -16 -13
-113 -15 -318 l-2 -295 -102 -3 -103 -3 0 436 0 436 103 -3 102 -3 3 -54 3
-53 36 42 c51 59 90 81 138 78 l40 -3 3 -101z m2080 85 c54 -26 97 -89 111
-163 6 -28 12 -196 13 -374 l3 -323 -90 3 -90 3 -9 48 c-9 43 -26 66 -26 33 0
-19 -74 -84 -105 -92 -14 -4 -48 -4 -75 -2 -99 10 -166 98 -164 218 3 143 92
238 297 315 l47 18 0 71 c0 84 -16 116 -59 116 -46 0 -63 -20 -70 -86 -7 -67
9 -60 -136 -56 l-65 2 0 38 c0 89 50 186 113 219 52 26 77 31 171 32 72 1 98
-3 134 -20z m3803 4 c62 -37 64 -48 67 -476 l3 -388 -103 3 -103 3 -5 350 c-3
193 -9 356 -13 363 -12 18 -68 14 -104 -8 l-33 -20 0 -345 0 -346 -102 3 -103
3 0 430 0 430 103 3 102 3 0 -36 c0 -19 3 -35 6 -35 3 0 25 14 49 30 24 17 54
34 67 40 40 15 137 12 169 -7z m-7601 4 c0 -19 81 -561 84 -565 6 -5 11 23 46
288 17 124 33 237 36 253 l6 27 99 0 c54 0 99 -3 99 -6 0 -3 -38 -197 -85
-431 -47 -234 -85 -427 -85 -429 0 -2 -52 -4 -115 -4 l-114 0 -10 38 c-14 55
-161 799 -161 817 0 12 17 15 100 15 55 0 100 -2 100 -3z m2074 -249 c27 -139
52 -259 56 -267 8 -15 13 1 25 79 9 57 65 383 71 413 l6 27 99 0 c54 0 99 -2
99 -5 0 -33 -215 -945 -229 -974 -41 -79 -126 -121 -248 -121 l-64 0 3 73 3
72 57 6 c102 11 106 28 53 237 -42 167 -172 667 -180 693 -6 18 0 19 97 19
l104 0 48 -252z m2255 -21 c30 -147 55 -266 57 -264 2 2 94 521 94 533 0 2 45
4 100 4 55 0 100 -4 100 -9 0 -5 -24 -116 -54 -247 -30 -132 -77 -338 -105
-459 -56 -251 -59 -259 -96 -304 -43 -50 -97 -73 -192 -79 l-83 -5 0 75 0 76
54 4 c30 3 62 10 70 17 30 25 21 79 -82 471 -17 63 -49 186 -72 272 -22 87
-43 165 -46 173 -6 14 7 15 97 13 l104 -3 54 -268z m2541 -162 l0 -436 -102 3
-103 3 -3 433 -2 432 105 0 105 0 0 -435z"/>
<path d="M6712 1575 c-16 -20 -21 -48 -27 -143 -11 -168 -1 -377 19 -407 22
-33 55 -40 100 -21 l36 15 0 279 0 279 -25 11 c-43 20 -81 15 -103 -13z"/>
<path d="M11994 1589 c-16 -18 -19 -39 -22 -138 -3 -128 6 -160 49 -175 42
-15 78 0 95 39 21 51 19 210 -4 255 -15 30 -22 35 -58 38 -31 2 -45 -2 -60
-19z"/>
<path d="M11921 859 c-27 -44 -26 -65 2 -93 47 -47 237 -47 283 -1 26 26 30
46 14 75 -14 27 -63 40 -176 47 l-103 6 -20 -34z"/>
<path d="M2053 1590 c-31 -13 -41 -37 -49 -123 l-7 -77 78 0 77 0 -3 85 c-4
87 -13 107 -54 118 -11 3 -30 2 -42 -3z"/>
<path d="M3234 1590 c-29 -11 -44 -59 -44 -136 l0 -64 75 0 75 0 0 58 c0 82
-16 131 -46 142 -29 12 -32 12 -60 0z"/>
<path d="M4634 1555 c-7 -19 -14 -64 -14 -100 l0 -65 76 0 77 0 -5 80 c-6 96
-21 120 -80 120 -35 0 -40 -4 -54 -35z"/>
<path d="M7549 1262 c-94 -60 -129 -182 -68 -243 26 -26 53 -24 89 9 l31 27
-3 118 -3 118 -46 -29z"/>
</g>
</svg>
